<svg width="14" height="12" viewBox="0 0 14 12" fill="none" xmlns="http://www.w3.org/2000/svg">
<path d="M7 12C6.69868 12 6.39735 11.8889 6.16556 11.6889C5.63245 11.2444 5.1457 10.8444 4.7053 10.4889C3.38411 9.4 2.22517 8.48889 1.41391 7.55556C0.463576 6.44444 0 5.4 0 4.22222C0 3.08889 0.417219 2.02222 1.15894 1.24444C1.92384 0.444445 2.99007 0 4.12583 0C4.98344 0 5.7947 0.266667 6.49007 0.777778C6.6755 0.911111 6.83775 1.04444 7 1.22222C7.16225 1.06667 7.3245 0.911111 7.50993 0.777778C8.2053 0.266667 8.99338 0 9.87417 0C11.0331 0 12.0762 0.444445 12.8411 1.24444C13.606 2.02222 14 3.08889 14 4.22222C14 5.4 13.5596 6.44444 12.5861 7.55556C11.7748 8.48889 10.6159 9.42222 9.2947 10.4889C8.8543 10.8444 8.34437 11.2667 7.81126 11.6889C7.60265 11.8889 7.30132 12 7 12ZM4.12583 1C3.26821 1 2.48013 1.33333 1.90066 1.91111C1.34437 2.51111 1.04305 3.33333 1.04305 4.22222C1.04305 5.13333 1.41391 6 2.20199 6.91111C2.96689 7.77778 4.07947 8.68889 5.3543 9.73333C5.7947 10.0889 6.30464 10.5111 6.83775 10.9556C6.93046 11.0222 7.06954 11.0222 7.16225 10.9556C7.69536 10.5111 8.2053 10.1111 8.64569 9.73333C9.94371 8.66667 11.0563 7.77778 11.798 6.91111C12.5861 6 12.957 5.13333 12.957 4.22222C12.957 3.33333 12.6325 2.51111 12.0762 1.93333C11.4967 1.33333 10.7086 1 9.87417 1C9.24834 1 8.66887 1.2 8.15894 1.55556C7.95033 1.71111 7.7649 1.88889 7.57947 2.08889C7.4404 2.24444 7.23179 2.35556 7 2.35556C6.76821 2.35556 6.58278 2.26667 6.42053 2.08889C6.2351 1.88889 6.04967 1.71111 5.84106 1.55556C5.3543 1.2 4.77483 1 4.12583 1Z" fill="black"/>
</svg>
