<svg width="23" height="20" viewBox="0 0 23 20" xmlns="http://www.w3.org/2000/svg">
<path d="M11.5 20C11.005 20 10.5099 19.8148 10.1291 19.4815C9.25331 18.7407 8.45364 18.0741 7.73013 17.4815C5.5596 15.6667 3.65563 14.1481 2.32285 12.5926C0.76159 10.7407 0 9 0 7.03704C0 5.14815 0.68543 3.37037 1.90397 2.07407C3.1606 0.740741 4.91225 0 6.77815 0C8.18709 0 9.51987 0.444444 10.6623 1.2963C10.9669 1.51852 11.2334 1.74074 11.5 2.03704C11.7666 1.77778 12.0331 1.51852 12.3377 1.2963C13.4801 0.444444 14.7748 0 16.2219 0C18.1258 0 19.8394 0.740741 21.096 2.07407C22.3526 3.37037 23 5.14815 23 7.03704C23 9 22.2765 10.7407 20.6772 12.5926C19.3444 14.1481 17.4404 15.7037 15.2699 17.4815C14.5464 18.0741 13.7086 18.7778 12.8328 19.4815C12.4901 19.8148 11.995 20 11.5 20ZM6.77815 1.66667C5.36921 1.66667 4.0745 2.22222 3.12252 3.18519C2.20861 4.18519 1.71358 5.55556 1.71358 7.03704C1.71358 8.55556 2.32285 10 3.61755 11.5185C4.87417 12.963 6.70199 14.4815 8.79636 16.2222C9.51987 16.8148 10.3576 17.5185 11.2334 18.2593C11.3858 18.3704 11.6142 18.3704 11.7666 18.2593C12.6424 17.5185 13.4801 16.8519 14.2036 16.2222C16.3361 14.4444 18.1639 12.963 19.3825 11.5185C20.6772 10 21.2864 8.55556 21.2864 7.03704C21.2864 5.55556 20.7533 4.18518 19.8394 3.22222C18.8874 2.22222 17.5927 1.66667 16.2219 1.66667C15.1937 1.66667 14.2417 2 13.404 2.59259C13.0613 2.85185 12.7566 3.14815 12.452 3.48148C12.2235 3.74074 11.8808 3.92593 11.5 3.92593C11.1192 3.92593 10.8146 3.77778 10.548 3.48148C10.2434 3.14815 9.93874 2.85185 9.59603 2.59259C8.79636 2 7.84437 1.66667 6.77815 1.66667Z" fill="black"/>
</svg>
