<svg width="28" height="28" viewBox="0 0 28 28" fill="none" xmlns="http://www.w3.org/2000/svg">
<path d="M14.2885 25.8125C13.7165 25.8125 13.1445 25.5937 12.7045 25.2C11.6924 24.325 10.7684 23.5375 9.93236 22.8375C7.42426 20.6938 5.22417 18.9 3.68411 17.0625C1.88004 14.875 1 12.8188 1 10.5C1 8.26875 1.79203 6.16875 3.20009 4.6375C4.65215 3.0625 6.67623 2.1875 8.83232 2.1875C10.4604 2.1875 12.0004 2.7125 13.3205 3.71875C13.6725 3.98125 13.9805 4.24375 14.2885 4.59375C14.5965 4.2875 14.9046 3.98125 15.2566 3.71875C16.5766 2.7125 18.0727 2.1875 19.7448 2.1875C21.9448 2.1875 23.9249 3.0625 25.377 4.6375C26.829 6.16875 27.5771 8.26875 27.5771 10.5C27.5771 12.8188 26.741 14.875 24.893 17.0625C23.3529 18.9 21.1528 20.7375 18.6447 22.8375C17.8087 23.5375 16.8406 24.3687 15.8286 25.2C15.4326 25.5937 14.8606 25.8125 14.2885 25.8125ZM8.83232 4.15625C7.20425 4.15625 5.70819 4.8125 4.60815 5.95C3.5521 7.13125 2.98008 8.75 2.98008 10.5C2.98008 12.2937 3.68411 14 5.18017 15.7937C6.63223 17.5 8.74431 19.2937 11.1644 21.35C12.0004 22.05 12.9685 22.8812 13.9805 23.7562C14.1565 23.8875 14.4205 23.8875 14.5965 23.7562C15.6086 22.8812 16.5766 22.0937 17.4127 21.35C19.8768 19.25 21.9888 17.5 23.3969 15.7937C24.893 14 25.597 12.2937 25.597 10.5C25.597 8.75 24.981 7.13125 23.9249 5.99375C22.8249 4.8125 21.3288 4.15625 19.7448 4.15625C18.5567 4.15625 17.4567 4.55 16.4886 5.25C16.0926 5.55625 15.7406 5.90625 15.3886 6.3C15.1246 6.60625 14.7286 6.825 14.2885 6.825C13.8485 6.825 13.4965 6.65 13.1885 6.3C12.8365 5.90625 12.4845 5.55625 12.0884 5.25C11.1644 4.55 10.0644 4.15625 8.83232 4.15625Z" fill="black"/>
</svg>
