<svg width="29" height="28" viewBox="0 0 29 28" fill="none" xmlns="http://www.w3.org/2000/svg">
<path d="M27.8583 22.9687L25.6582 4.1124C25.4382 2.1874 23.8102 0.743652 21.8301 0.743652H7.96953C6.03346 0.743652 4.40539 2.1874 4.14138 4.1124L1.94129 22.9687C1.80929 24.0624 2.1613 25.1124 2.90933 25.9437C3.65736 26.7749 4.6694 27.2124 5.76944 27.2124H24.0302C25.1302 27.2124 26.1863 26.7312 26.8903 25.9437C27.5943 25.1562 27.9903 24.0624 27.8583 22.9687ZM25.4382 24.6312C25.0862 25.0249 24.6022 25.2437 24.0742 25.2437H5.76944C5.24142 25.2437 4.7574 25.0249 4.40539 24.6312C4.05338 24.2374 3.87737 23.7124 3.96537 23.1874L6.12146 4.3749C6.20946 3.45615 7.00149 2.75615 7.96953 2.75615H21.8741C22.7981 2.75615 23.5902 3.45615 23.7222 4.3749L25.9223 23.2312C25.9663 23.7562 25.7903 24.2374 25.4382 24.6312Z" fill="#111928"/>
<path d="M19.1923 6.7374C18.6643 6.86865 18.3123 7.39365 18.4443 7.91865C18.4883 8.18115 18.5323 8.44365 18.5323 8.6624C18.5323 10.6311 16.9042 12.2499 14.9242 12.2499C12.9441 12.2499 11.316 10.6311 11.316 8.6624C11.316 8.3999 11.36 8.18115 11.404 7.91865C11.536 7.39365 11.184 6.86865 10.656 6.7374C10.128 6.60615 9.59995 6.95615 9.46794 7.48115C9.37994 7.8749 9.33594 8.26865 9.33594 8.6624C9.33594 11.7249 11.844 14.2186 14.9242 14.2186C18.0043 14.2186 20.5124 11.7249 20.5124 8.6624C20.5124 8.26865 20.4684 7.8749 20.3804 7.48115C20.2484 6.95615 19.7204 6.6499 19.1923 6.7374Z" fill="#111928"/>
</svg>
