<svg width="27" height="26" viewBox="0 0 27 26" fill="none" xmlns="http://www.w3.org/2000/svg">
<rect width="27" height="26" fill="black"/>
<path d="M14.1663 17.5502C9.09265 17.5502 6.19871 14.1343 6.07812 8.4502H8.6196C8.70308 12.6222 10.5767 14.3893 12.0608 14.7537V8.4502H14.4539V12.0483C15.9194 11.8934 17.4591 10.2538 17.9785 8.4502H20.3716C20.1759 9.3856 19.7857 10.2713 19.2255 11.0518C18.6653 11.8324 17.9471 12.491 17.1159 12.9865C18.0438 13.4393 18.8633 14.0802 19.5204 14.8668C20.1775 15.6535 20.6573 16.5681 20.9281 17.5502H18.2939C18.0508 16.6971 17.5568 15.9335 16.8737 15.355C16.1906 14.7765 15.3488 14.4089 14.4539 14.2982V17.5502H14.1663V17.5502Z" fill="white"/>
</svg>
