<svg width="26" height="26" viewBox="0 0 26 26" fill="none" xmlns="http://www.w3.org/2000/svg">
<rect width="26" height="26" fill="black"/>
<path d="M18.1524 7.84072C16.8683 6.56103 15.1561 5.8501 13.3488 5.8501C9.59146 5.8501 6.54756 8.88343 6.54756 12.6277C6.54756 13.8126 6.88049 14.9975 7.45122 15.9928L6.5 19.5001L10.1146 18.5522C11.1134 19.0735 12.2073 19.3579 13.3488 19.3579C17.1061 19.3579 20.15 16.3246 20.15 12.5803C20.1024 10.8267 19.4366 9.12041 18.1524 7.84072ZM16.6305 15.0449C16.4878 15.4241 15.8219 15.8032 15.489 15.8506C15.2037 15.898 14.8232 15.898 14.4427 15.8032C14.2049 15.7084 13.872 15.6136 13.4915 15.4241C11.7793 14.7131 10.6854 13.0069 10.5902 12.8647C10.4951 12.7699 9.87683 11.9642 9.87683 11.111C9.87683 10.2579 10.3049 9.87874 10.4476 9.68916C10.5902 9.49958 10.7805 9.49958 10.9232 9.49958C11.0183 9.49958 11.161 9.49958 11.2561 9.49958C11.3512 9.49958 11.4939 9.45218 11.6366 9.78395C11.7793 10.1157 12.1122 10.9688 12.1598 11.0162C12.2073 11.111 12.2073 11.2058 12.1598 11.3006C12.1122 11.3954 12.0646 11.4902 11.9695 11.585C11.8744 11.6798 11.7793 11.822 11.7317 11.8694C11.6366 11.9642 11.5415 12.059 11.6366 12.2011C11.7317 12.3907 12.0646 12.9121 12.5878 13.386C13.2537 13.9548 13.7768 14.1444 13.9671 14.2392C14.1573 14.334 14.2524 14.2866 14.3476 14.1918C14.4427 14.097 14.7756 13.7178 14.8707 13.5282C14.9659 13.3386 15.1085 13.386 15.2512 13.4334C15.3939 13.4808 16.25 13.9074 16.3927 14.0022C16.5829 14.097 16.678 14.1444 16.7256 14.1918C16.7732 14.334 16.7732 14.6657 16.6305 15.0449Z" fill="white"/>
</svg>
